<svg viewBox="0 0 100 100" class="AnalogClockComp_clock__11Vnq"><circle cx="50" cy="50" r="49.5" stroke-width="1" stroke="black" fill="white"></circle><path d="m 0,0 l 0,-40" stroke-width="5" stroke="black" stroke-linecap="round" transform="translate(50 50) rotate(72)" fill="black"></path><path d="m 0,0 l 0,-30" stroke-width="5" stroke="black" stroke-linecap="round" transform="translate(50 50) rotate(335.99999999999994)" fill="black"></path><path d="m 0,-49.5 l 0,5" stroke-width="3" stroke="black" fill="white" transform="translate(50 50) rotate(0)"></path><path d="m 0,-49.5 l 0,3" stroke-width="1" stroke="black" fill="white" transform="translate(50 50) rotate(6)"></path><path d="m 0,-49.5 l 0,3" stroke-width="1" stroke="black" fill="white" transform="translate(50 50) rotate(12)"></path><path d="m 0,-49.5 l 0,3" stroke-width="1" stroke="black" fill="white" transform="translate(50 50) rotate(18)"></path><path d="m 0,-49.5 l 0,3" stroke-width="1" stroke="black" fill="white" transform="translate(50 50) rotate(24)"></path><path d="m 0,-49.5 l 0,5" stroke-width="3" stroke="black" fill="white" transform="translate(50 50) rotate(30)"></path><path d="m 0,-49.5 l 0,3" stroke-width="1" stroke="black" fill="white" transform="translate(50 50) rotate(36)"></path><path d="m 0,-49.5 l 0,3" stroke-width="1" stroke="black" fill="white" transform="translate(50 50) rotate(42)"></path><path d="m 0,-49.5 l 0,3" stroke-width="1" stroke="black" fill="white" transform="translate(50 50) rotate(48)"></path><path d="m 0,-49.5 l 0,3" stroke-width="1" stroke="black" fill="white" transform="translate(50 50) rotate(54)"></path><path d="m 0,-49.5 l 0,5" stroke-width="3" stroke="black" fill="white" transform="translate(50 50) rotate(60)"></path><path d="m 0,-49.5 l 0,3" stroke-width="1" stroke="black" fill="white" transform="translate(50 50) rotate(66)"></path><path d="m 0,-49.5 l 0,3" stroke-width="1" stroke="black" fill="white" transform="translate(50 50) rotate(72)"></path><path d="m 0,-49.5 l 0,3" stroke-width="1" stroke="black" fill="white" transform="translate(50 50) rotate(78)"></path><path d="m 0,-49.5 l 0,3" stroke-width="1" stroke="black" fill="white" transform="translate(50 50) rotate(84)"></path><path d="m 0,-49.5 l 0,5" stroke-width="3" stroke="black" fill="white" transform="translate(50 50) rotate(90)"></path><path d="m 0,-49.5 l 0,3" stroke-width="1" stroke="black" fill="white" transform="translate(50 50) rotate(96)"></path><path d="m 0,-49.5 l 0,3" stroke-width="1" stroke="black" fill="white" transform="translate(50 50) rotate(102)"></path><path d="m 0,-49.5 l 0,3" stroke-width="1" stroke="black" fill="white" transform="translate(50 50) rotate(108)"></path><path d="m 0,-49.5 l 0,3" stroke-width="1" stroke="black" fill="white" transform="translate(50 50) rotate(114)"></path><path d="m 0,-49.5 l 0,5" stroke-width="3" stroke="black" fill="white" transform="translate(50 50) rotate(120)"></path><path d="m 0,-49.5 l 0,3" stroke-width="1" stroke="black" fill="white" transform="translate(50 50) rotate(126)"></path><path d="m 0,-49.5 l 0,3" stroke-width="1" stroke="black" fill="white" transform="translate(50 50) rotate(132)"></path><path d="m 0,-49.5 l 0,3" stroke-width="1" stroke="black" fill="white" transform="translate(50 50) rotate(138)"></path><path d="m 0,-49.5 l 0,3" stroke-width="1" stroke="black" fill="white" transform="translate(50 50) rotate(144)"></path><path d="m 0,-49.5 l 0,5" stroke-width="3" stroke="black" fill="white" transform="translate(50 50) rotate(150)"></path><path d="m 0,-49.5 l 0,3" stroke-width="1" stroke="black" fill="white" transform="translate(50 50) rotate(156)"></path><path d="m 0,-49.5 l 0,3" stroke-width="1" stroke="black" fill="white" transform="translate(50 50) rotate(162)"></path><path d="m 0,-49.5 l 0,3" stroke-width="1" stroke="black" fill="white" transform="translate(50 50) rotate(168)"></path><path d="m 0,-49.5 l 0,3" stroke-width="1" stroke="black" fill="white" transform="translate(50 50) rotate(174)"></path><path d="m 0,-49.5 l 0,5" stroke-width="3" stroke="black" fill="white" transform="translate(50 50) rotate(180)"></path><path d="m 0,-49.5 l 0,3" stroke-width="1" stroke="black" fill="white" transform="translate(50 50) rotate(186)"></path><path d="m 0,-49.5 l 0,3" stroke-width="1" stroke="black" fill="white" transform="translate(50 50) rotate(192)"></path><path d="m 0,-49.5 l 0,3" stroke-width="1" stroke="black" fill="white" transform="translate(50 50) rotate(198)"></path><path d="m 0,-49.5 l 0,3" stroke-width="1" stroke="black" fill="white" transform="translate(50 50) rotate(204)"></path><path d="m 0,-49.5 l 0,5" stroke-width="3" stroke="black" fill="white" transform="translate(50 50) rotate(210)"></path><path d="m 0,-49.5 l 0,3" stroke-width="1" stroke="black" fill="white" transform="translate(50 50) rotate(216)"></path><path d="m 0,-49.5 l 0,3" stroke-width="1" stroke="black" fill="white" transform="translate(50 50) rotate(222)"></path><path d="m 0,-49.5 l 0,3" stroke-width="1" stroke="black" fill="white" transform="translate(50 50) rotate(228)"></path><path d="m 0,-49.5 l 0,3" stroke-width="1" stroke="black" fill="white" transform="translate(50 50) rotate(234)"></path><path d="m 0,-49.5 l 0,5" stroke-width="3" stroke="black" fill="white" transform="translate(50 50) rotate(240)"></path><path d="m 0,-49.5 l 0,3" stroke-width="1" stroke="black" fill="white" transform="translate(50 50) rotate(246)"></path><path d="m 0,-49.5 l 0,3" stroke-width="1" stroke="black" fill="white" transform="translate(50 50) rotate(252)"></path><path d="m 0,-49.5 l 0,3" stroke-width="1" stroke="black" fill="white" transform="translate(50 50) rotate(258)"></path><path d="m 0,-49.5 l 0,3" stroke-width="1" stroke="black" fill="white" transform="translate(50 50) rotate(264)"></path><path d="m 0,-49.5 l 0,5" stroke-width="3" stroke="black" fill="white" transform="translate(50 50) rotate(270)"></path><path d="m 0,-49.5 l 0,3" stroke-width="1" stroke="black" fill="white" transform="translate(50 50) rotate(276)"></path><path d="m 0,-49.5 l 0,3" stroke-width="1" stroke="black" fill="white" transform="translate(50 50) rotate(282)"></path><path d="m 0,-49.5 l 0,3" stroke-width="1" stroke="black" fill="white" transform="translate(50 50) rotate(288)"></path><path d="m 0,-49.5 l 0,3" stroke-width="1" stroke="black" fill="white" transform="translate(50 50) rotate(294)"></path><path d="m 0,-49.5 l 0,5" stroke-width="3" stroke="black" fill="white" transform="translate(50 50) rotate(300)"></path><path d="m 0,-49.5 l 0,3" stroke-width="1" stroke="black" fill="white" transform="translate(50 50) rotate(306)"></path><path d="m 0,-49.5 l 0,3" stroke-width="1" stroke="black" fill="white" transform="translate(50 50) rotate(312)"></path><path d="m 0,-49.5 l 0,3" stroke-width="1" stroke="black" fill="white" transform="translate(50 50) rotate(318)"></path><path d="m 0,-49.5 l 0,3" stroke-width="1" stroke="black" fill="white" transform="translate(50 50) rotate(324)"></path><path d="m 0,-49.5 l 0,5" stroke-width="3" stroke="black" fill="white" transform="translate(50 50) rotate(330)"></path><path d="m 0,-49.5 l 0,3" stroke-width="1" stroke="black" fill="white" transform="translate(50 50) rotate(336)"></path><path d="m 0,-49.5 l 0,3" stroke-width="1" stroke="black" fill="white" transform="translate(50 50) rotate(342)"></path><path d="m 0,-49.5 l 0,3" stroke-width="1" stroke="black" fill="white" transform="translate(50 50) rotate(348)"></path><path d="m 0,-49.5 l 0,3" stroke-width="1" stroke="black" fill="white" transform="translate(50 50) rotate(354)"></path></svg>